<svg xmlns="http://www.w3.org/2000/svg" xmlns:xlink="http://www.w3.org/1999/xlink" width="1080" zoomAndPan="magnify" viewBox="0 0 810 809.999993" height="1080" preserveAspectRatio="xMidYMid meet" version="1.0"><defs><clipPath id="cce8db24ee"><path d="M 405 0 C 181.324219 0 0 181.324219 0 405 C 0 628.675781 181.324219 810 405 810 C 628.675781 810 810 628.675781 810 405 C 810 181.324219 628.675781 0 405 0 Z M 405 0 " clip-rule="nonzero"/></clipPath><clipPath id="6ca639df60"><path d="M 166 96 L 661 96 L 661 704.25 L 166 704.25 Z M 166 96 " clip-rule="nonzero"/></clipPath></defs><g clip-path="url(#cce8db24ee)"><rect x="-81" width="972" fill="#cad2c5" y="-80.999999" height="971.999992" fill-opacity="1"/></g><g clip-path="url(#6ca639df60)"><path fill="#84a98c" d="M 558.488281 268.335938 C 557.566406 267.285156 556.777344 266.097656 555.722656 265.046875 C 529.394531 237.136719 493.589844 223.046875 449.226562 223.046875 C 439.484375 223.046875 430.402344 223.835938 421.449219 225.023438 L 421.449219 161.828125 L 355.632812 96 L 166.859375 96 L 166.859375 638.683594 L 232.679688 704.511719 L 421.320312 704.511719 L 421.320312 651.851562 L 471.210938 704.511719 L 660.511719 704.511719 L 660.511719 452.523438 C 660.640625 399.203125 577.050781 289.535156 558.488281 268.335938 Z M 558.488281 268.335938 " fill-opacity="1" fill-rule="nonzero"/></g><path fill="#ffffff" d="M 193.1875 122.332031 L 329.171875 122.332031 L 329.171875 302.832031 C 347.601562 283.609375 366.03125 269.917969 384.328125 261.753906 C 402.625 253.460938 424.214844 249.378906 449.09375 249.378906 C 486.085938 249.378906 515.179688 260.570312 536.503906 283.082031 C 557.832031 305.597656 568.363281 340.089844 568.363281 386.695312 L 568.363281 612.355469 L 431.851562 612.355469 L 431.851562 417.109375 C 431.851562 394.859375 427.769531 379.058594 419.476562 369.84375 C 411.183594 360.628906 399.597656 356.019531 384.722656 356.019531 C 368.269531 356.019531 354.839844 362.207031 344.574219 374.714844 C 334.304688 387.222656 329.171875 409.605469 329.171875 441.859375 L 329.171875 612.355469 L 193.1875 612.355469 Z M 193.1875 122.332031 " fill-opacity="1" fill-rule="nonzero"/></svg>